{"title":"Come Back To Me 2014 LIMITED Movies HDRip XviD AAC +Sample â˜»rDXâ˜»","uid":11884711,"size":740548279,"categoryP":"video","categoryS":"movies","magnet":"?xt=urn:btih:fe675dd3c36b058343027f6ce0fff45a930c7c2e&amp;dn=Come+Back+To+Me+2014+LIMITED+Movies+HDRip+XviD+AAC+%2BSample+%E2%98%BBrDX%E2%98%BB&amp;tr=udp%3A%2F%2Ftracker.openbittorrent.com%3A80&amp;tr=udp%3A%2F%2Fopen.demonii.com%3A1337&amp;tr=udp%3A%2F%2Ftracker.coppersurfer.tk%3A6969&amp;tr=udp%3A%2F%2Fexodus.desync.com%3A6969","seeders":1,"leechers":0,"uploader":"basicssom","files":2,"time":1430805412,"description":"----------------------------------------------------------------\nCome Back To Me 2014 LIMITED English Movies HDRip XviD AAC with Sample ~ â˜»rDXâ˜»\n\nSCREEN SHOTS &amp; POSTER:\n &lt;a href=&quot;\nhttp://postimage.co.nr/2015/5/ComeBackToMe/11.html&quot; rel=&quot;nofollow&quot; target=&quot;_NEW&quot;&gt;\nhttp://postimage.co.nr/2015/5/ComeBackToMe/11.html&lt;/a&gt; &lt;a href=&quot;\nhttp://postimage.co.nr/2015/5/ComeBackToMe/1.html&quot; rel=&quot;nofollow&quot; target=&quot;_NEW&quot;&gt;\nhttp://postimage.co.nr/2015/5/ComeBackToMe/1.html&lt;/a&gt; &lt;a href=&quot;\nhttp://postimage.co.nr/2015/5/ComeBackToMe/2.html&quot; rel=&quot;nofollow&quot; target=&quot;_NEW&quot;&gt;\nhttp://postimage.co.nr/2015/5/ComeBackToMe/2.html&lt;/a&gt; &lt;a href=&quot;\nhttp://postimage.co.nr/2015/5/ComeBackToMe/3.html&quot; rel=&quot;nofollow&quot; target=&quot;_NEW&quot;&gt;\nhttp://postimage.co.nr/2015/5/ComeBackToMe/3.html&lt;/a&gt; &lt;a href=&quot;\nhttp://postimage.co.nr/2015/5/ComeBackToMe/4.html&quot; rel=&quot;nofollow&quot; target=&quot;_NEW&quot;&gt;\nhttp://postimage.co.nr/2015/5/ComeBackToMe/4.html&lt;/a&gt; &lt;a href=&quot;\nhttp://postimage.co.nr/2015/5/ComeBackToMe/5.html&quot; rel=&quot;nofollow&quot; target=&quot;_NEW&quot;&gt;\nhttp://postimage.co.nr/2015/5/ComeBackToMe/5.html&lt;/a&gt; &lt;a href=&quot;\nhttp://postimage.co.nr/2015/5/ComeBackToMe/6.html&quot; rel=&quot;nofollow&quot; target=&quot;_NEW&quot;&gt;\nhttp://postimage.co.nr/2015/5/ComeBackToMe/6.html&lt;/a&gt; &lt;a href=&quot;\nhttp://postimage.co.nr/2015/5/ComeBackToMe/7.html&quot; rel=&quot;nofollow&quot; target=&quot;_NEW&quot;&gt;\nhttp://postimage.co.nr/2015/5/ComeBackToMe/7.html&lt;/a&gt; &lt;a href=&quot;\nhttp://postimage.co.nr/2015/5/ComeBackToMe/8.html&quot; rel=&quot;nofollow&quot; target=&quot;_NEW&quot;&gt;\nhttp://postimage.co.nr/2015/5/ComeBackToMe/8.html&lt;/a&gt; &lt;a href=&quot;\nhttp://postimage.co.nr/2015/5/ComeBackToMe/9.html&quot; rel=&quot;nofollow&quot; target=&quot;_NEW&quot;&gt;\nhttp://postimage.co.nr/2015/5/ComeBackToMe/9.html&lt;/a&gt; &lt;a href=&quot;\nhttp://postimage.co.nr/2015/5/ComeBackToMe/10.html&quot; rel=&quot;nofollow&quot; target=&quot;_NEW&quot;&gt;\nhttp://postimage.co.nr/2015/5/ComeBackToMe/10.html&lt;/a&gt;\n\nFormat                                   : Matroska\nFormat version                           : Version 4 / Version 2\nFile size                                : 693 MiB\nDuration                                 : 1h 33mn\nOverall bit rate                         : 1 041 Kbps\nMovie name                               : Come Back To Me 2014 LIMITED English Movies HDRip XviD AAC ~ rDX ~\n\nVideo\nID                                       : 1\nFormat                                   : MPEG-4 Visual\nFormat profile                           : Advanced Simple@L5\nFormat settings, BVOP                    : Yes\nFormat settings, QPel                    : No\nFormat settings, GMC                     : No warppoints\nFormat settings, Matrix                  : Default (H.263)\nCodec ID                                 : V_MS/VFW/FOURCC / XVID\nCodec ID/Hint                            : XviD\nDuration                                 : 1h 33mn\nBit rate                                 : 892 Kbps\nWidth                                    : 640 pixels\nHeight                                   : 272 pixels\nDisplay aspect ratio                     : 2.35:1\nFrame rate mode                          : Constant\nFrame rate                               : 23.976 fps\nColor space                              : YUV\nChroma subsampling                       : 4:2:0\nBit depth                                : 8 bits\nScan type                                : Progressive\nCompression mode                         : Lossy\nBits/(Pixel*Frame)                       : 0.214\nStream size                              : 594 MiB (86%)\nTitle                                    : ~ rDX ~\nWriting library                          : XviD 66\nDefault                                  : Yes\nForced                                   : No\n\nAudio\nID                                       : 2\nFormat                                   : MPEG Audio\nFormat version                           : Version 1\nFormat profile                           : Layer 3\nMode                                     : Joint stereo\nMode extension                           : MS Stereo\nCodec ID                                 : A_MPEG/L3\nCodec ID/Hint                            : MP3\nDuration                                 : 1h 32mn\nBit rate mode                            : Constant\nBit rate                                 : 128 Kbps\nChannel(s)                               : 2 channels\nSampling rate                            : 48.0 KHz\nCompression mode                         : Lossy\nStream size                              : 84.9 MiB (12%)\nTitle                                    : ~ rDX ~\nWriting library                          : LAME3.99r\nEncoding settings                        : -m j -V 4 -q 3 -lowpass 17 -b 128\nDefault                                  : Yes\nForced                                   : No","torrent":{"xt":"urn:btih:fe675dd3c36b058343027f6ce0fff45a930c7c2e","amp;dn":"Come+Back+To+Me+2014+LIMITED+Movies+HDRip+XviD+AAC+%2BSample+%E2%98%BBrDX%E2%98%BB","amp;tr":["udp%3A%2F%2Ftracker.openbittorrent.com%3A80","udp%3A%2F%2Fopen.demonii.com%3A1337","udp%3A%2F%2Ftracker.coppersurfer.tk%3A6969","udp%3A%2F%2Fexodus.desync.com%3A6969"],"infoHash":"fe675dd3c36b058343027f6ce0fff45a930c7c2e","infoHashBuffer":{"type":"Buffer","data":[254,103,93,211,195,107,5,131,67,2,127,108,224,255,244,90,147,12,124,46]},"announce":[],"urlList":[]}}